<?xml version="1.0" encoding="utf-8"?>
<!-- Generator: Adobe Illustrator 22.0.1, SVG Export Plug-In . SVG Version: 6.00 Build 0)  -->
<svg version="1.1" id="Layer_1" xmlns="http://www.w3.org/2000/svg" xmlns:xlink="http://www.w3.org/1999/xlink" x="0px" y="0px"
	 viewBox="0 0 120.1 70.5" style="enable-background:new 0 0 120.1 70.5;" xml:space="preserve">
<style type="text/css">
	.st0{fill:none;}
	.st1{fill:#FF4B00;}
	.st2{fill:#1D1E1C;}
</style>
<title>dolittle_positiv_vertikal</title>
<rect x="-42.5" y="-30.6" class="st0" width="204.1" height="133.1"/>
<path class="st1" d="M57.2,14h-5.7c-0.3,0-0.7,0.2-0.8,0.5l-2.8,4.9c-0.2,0.3-0.2,0.7,0,1l2.9,4.9c0.2,0.3,0.5,0.5,0.8,0.5h5.7
	c0.3,0,0.7-0.2,0.8-0.5l2.8-4.9c0.2-0.3,0.2-0.7,0-1l-2.8-4.9C57.9,14.2,57.6,14,57.2,14L57.2,14z"/>
<path class="st1" d="M66.2,1c-0.1-0.2-0.4-0.3-0.7-0.2c-0.1,0-0.1,0.1-0.2,0.2l-4.6,8c-0.1,0.3-0.1,0.6,0,0.8l5.7,9.9
	c0.1,0.2,0.1,0.4,0,0.6l-5.8,10c-0.1,0.2-0.3,0.3-0.5,0.3H48.7c-0.3,0-0.6,0.2-0.7,0.4l-4.6,8c-0.1,0.2,0,0.5,0.2,0.7
	c0.1,0,0.2,0.1,0.2,0.1h20.7c0.8,0,1.5-0.4,1.9-1.1l10.1-17.6c0.4-0.7,0.4-1.5,0-2.2L66.2,1z"/>
<path class="st2" d="M18.7,61.4L18.7,61.4c0-4.8,3.9-8.8,8.8-8.8s8.8,3.9,8.8,8.8l0,0c0,4.7-3.9,8.5-8.6,8.5c-0.1,0-0.2,0-0.3,0
	c-4.7,0.1-8.6-3.5-8.7-8.2C18.7,61.6,18.7,61.5,18.7,61.4z M32.4,61.4L32.4,61.4c0.1-2.8-2-5.1-4.8-5.2c-0.1,0-0.1,0-0.2,0
	c-2.7,0-5,2.1-5,4.9c0,0.1,0,0.2,0,0.3v0.1c-0.1,2.8,2,5.1,4.8,5.2c0.1,0,0.1,0,0.2,0c2.7,0,5-2.1,5-4.9
	C32.4,61.6,32.4,61.5,32.4,61.4z"/>
<path class="st2" d="M18.7,61.4L18.7,61.4c0-4.8,3.9-8.8,8.8-8.8s8.8,3.9,8.8,8.8l0,0c0,4.7-3.9,8.5-8.6,8.5c-0.1,0-0.2,0-0.3,0
	c-4.7,0.1-8.6-3.5-8.7-8.2C18.7,61.6,18.7,61.5,18.7,61.4z M32.4,61.4L32.4,61.4c0.1-2.8-2-5.1-4.8-5.2c-0.1,0-0.1,0-0.2,0
	c-2.7,0-5,2.1-5,4.9c0,0.1,0,0.2,0,0.3v0.1c-0.1,2.8,2,5.1,4.8,5.2c0.1,0,0.1,0,0.2,0c2.7,0,5-2.1,5-4.9
	C32.4,61.6,32.4,61.5,32.4,61.4z"/>
<path class="st2" d="M1.2,54.1c0-0.6,0.5-1.1,1.1-1.1h5.3c5.2,0,8.7,3.6,8.7,8.2l0,0c0,4.6-3.6,8.2-8.8,8.2H2.3
	c-0.6,0-1.1-0.5-1.1-1.1L1.2,54.1z M7.6,66.2c2.6,0.2,4.8-1.8,5-4.4c0-0.2,0-0.4,0-0.5l0,0c0.2-2.6-1.8-4.8-4.4-5
	c-0.2,0-0.4,0-0.6,0H4.8v9.9L7.6,66.2z"/>
<path class="st2" d="M39,54.7c0-1,0.8-1.8,1.8-1.8c0.1,0,0.1,0,0.2,0c1,0.1,1.7,0.9,1.6,1.9v11.4h6.7c0.8,0,1.5,0.6,1.7,1.4
	c0.1,0.9-0.5,1.7-1.4,1.9c-0.1,0-0.2,0-0.3,0h-9.2c-0.6,0-1.2-0.5-1.2-1.1c0,0,0-0.1,0-0.1L39,54.7z"/>
<path class="st2" d="M53.7,54.7c0.1-1,0.9-1.8,1.9-1.7c0.9,0.1,1.6,0.8,1.7,1.7v13.1c0.1,1-0.7,1.9-1.7,1.9c-1,0.1-1.9-0.7-1.9-1.7
	c0-0.1,0-0.2,0-0.3V54.7z"/>
<path class="st2" d="M65.1,56.4h-3.5c-0.9-0.1-1.6-0.9-1.5-1.8c0.1-0.8,0.7-1.5,1.5-1.5h10.6c0.9,0.1,1.6,0.9,1.5,1.8
	c-0.1,0.8-0.7,1.5-1.5,1.5h-3.5v11.5c-0.1,1-0.9,1.8-1.9,1.7c-0.9-0.1-1.6-0.8-1.7-1.7L65.1,56.4z"/>
<path class="st2" d="M80.3,56.4h-3.5c-0.9-0.1-1.6-0.9-1.5-1.8c0.1-0.8,0.7-1.5,1.5-1.5h10.6c0.9,0.1,1.6,0.9,1.5,1.8
	c-0.1,0.8-0.7,1.5-1.5,1.5H84v11.5c0,1-0.8,1.8-1.8,1.8c-1,0-1.8-0.8-1.8-1.8L80.3,56.4z"/>
<path class="st2" d="M91.8,54.7c0-1,0.8-1.8,1.8-1.8c0.1,0,0.1,0,0.2,0c0.9,0.1,1.7,0.9,1.6,1.9v11.4h6.6c0.8,0,1.5,0.6,1.7,1.4
	c0.1,0.9-0.5,1.7-1.4,1.9c-0.1,0-0.2,0-0.3,0h-9.2c-0.6,0-1.1-0.5-1.2-1.1c0,0,0-0.1,0-0.1L91.8,54.7z"/>
<path class="st2" d="M106.3,68.4V54.1c0-0.6,0.5-1.1,1.1-1.1h9.8c0.9,0,1.6,0.6,1.7,1.5c0.1,0.9-0.6,1.7-1.4,1.7c-0.1,0-0.1,0-0.2,0
	h-7.4v3.3h6.2c0.9,0,1.6,0.6,1.7,1.5c0.1,0.9-0.6,1.7-1.5,1.7c-0.1,0-0.1,0-0.2,0h-6.3v3.5h7.4c0.9,0,1.6,0.6,1.7,1.5
	c0.1,0.9-0.6,1.7-1.5,1.7c-0.1,0-0.1,0-0.2,0h-9.9C106.8,69.5,106.3,69,106.3,68.4z"/>
<path class="st2" d="M106.3,68.4V54.1c0-0.6,0.5-1.1,1.1-1.1h9.8c0.9,0,1.6,0.6,1.7,1.5c0.1,0.9-0.6,1.7-1.4,1.7c-0.1,0-0.1,0-0.2,0
	h-7.4v3.3h6.2c0.9,0,1.6,0.6,1.7,1.5c0.1,0.9-0.6,1.7-1.5,1.7c-0.1,0-0.1,0-0.2,0h-6.3v3.5h7.4c0.9,0,1.6,0.6,1.7,1.5
	c0.1,0.9-0.6,1.7-1.5,1.7c-0.1,0-0.1,0-0.2,0h-9.9C106.8,69.5,106.3,69,106.3,68.4z"/>
</svg>
