<svg id="Layer_1" data-name="Layer 1" xmlns="http://www.w3.org/2000/svg" viewBox="0 0 64 64">
  <title>brick</title>
  <g>
    <path d="M63.4,20.35l-8.6-3.6v.8l7.5,3.1-33.1,9.7L1.8,19l7.4-2.2v2.5c0,1.5,3.2,2.8,7.2,2.8s7.2-1.2,7.2-2.8v-4.1c0-.74-.78-1.43-2.05-1.94l4.65-1.36v2.6c0,1.5,3.2,2.8,7.2,2.8s7.2-1.2,7.2-2.8v-2.7L45,13.62C42.26,14,40.3,15,40.3,16.25v4.1c0,1.5,3.2,2.8,7.2,2.8s7.2-1.2,7.2-2.8v-4.1c0-1.5-3.2-2.8-7.2-2.8-.33,0-.65,0-1,0L40.6,11v-.6c0-1.5-3.2-2.8-7.2-2.8s-7.2,1.2-7.2,2.8v.7L20.27,12.8a16.13,16.13,0,0,0-3.87-.45c-4,0-7.2,1.2-7.2,2.8v.9L.7,18.55l-.2.1V44l28.9,12.5,34.1-10.2Zm-9.2-3v2.9a3.52,3.52,0,0,1-1.8,1.3,13.77,13.77,0,0,1-4.8.8,13.37,13.37,0,0,1-4.8-.8c-1.1-.4-1.6-1-1.6-1.3v-2.9A11.62,11.62,0,0,0,47.7,19C50.6,19,53,18.35,54.2,17.35ZM52.3,15c1.1.4,1.6,1,1.6,1.3s-.5.8-1.6,1.3a13.77,13.77,0,0,1-4.8.8,13.37,13.37,0,0,1-4.8-.8c-1.1-.4-1.6-1-1.6-1.3s.4-.9,1.6-1.3a13.77,13.77,0,0,1,4.8-.8A13.37,13.37,0,0,1,52.3,15ZM40,14.45a2.75,2.75,0,0,1-1.8,1.3,13.77,13.77,0,0,1-4.8.8,13.37,13.37,0,0,1-4.8-.8c-1.1-.4-1.6-1-1.6-1.3v-2.9a11.62,11.62,0,0,0,6.5,1.6c2.9,0,5.3-.6,6.5-1.6ZM28.5,9.15a13.77,13.77,0,0,1,4.8-.8,13.37,13.37,0,0,1,4.8.8c1.1.4,1.6,1,1.6,1.3s-.5.8-1.6,1.3a13.77,13.77,0,0,1-4.8.8,13.37,13.37,0,0,1-4.8-.8c-1.1-.4-1.6-1-1.6-1.3S27.4,9.55,28.5,9.15ZM23,19.25a3.09,3.09,0,0,1-1.8,1.3,13.77,13.77,0,0,1-4.8.8,13.37,13.37,0,0,1-4.8-.8c-1.1-.4-1.6-1-1.6-1.3v-2.9A11.62,11.62,0,0,0,16.5,18c2.9,0,5.3-.6,6.5-1.6ZM11.5,14a13.77,13.77,0,0,1,4.8-.8,13.37,13.37,0,0,1,4.8.8c1.1.4,1.6,1,1.6,1.3s-.5.8-1.6,1.3a13.77,13.77,0,0,1-4.8.8,13.37,13.37,0,0,1-4.8-.8c-1.1-.4-1.6-1-1.6-1.3S10.4,14.35,11.5,14Zm17.1,41.4L1.2,43.45v-24l27.4,11.4Zm.8.4V31.05l33.3-9.7.1,24.5Z" fill="#525a63"/>
    <path d="M23.2,21.25v4.1c0,1.5,3.2,2.8,7.2,2.8s7.2-1.2,7.2-2.8v-4.1c0-1.5-3.2-2.8-7.2-2.8S23.2,19.65,23.2,21.25Zm13.8,4a2.75,2.75,0,0,1-1.8,1.3,13.77,13.77,0,0,1-4.8.8,13.37,13.37,0,0,1-4.8-.8c-1.1-.4-1.6-1-1.6-1.3v-2.9A11.62,11.62,0,0,0,30.5,24c2.9,0,5.3-.6,6.5-1.6Zm-.2-4c0,.3-.5.8-1.6,1.3a13.77,13.77,0,0,1-4.8.8,13.37,13.37,0,0,1-4.8-.8c-1.1-.4-1.6-1-1.6-1.3s.4-.9,1.6-1.3a13.77,13.77,0,0,1,4.8-.8,13.37,13.37,0,0,1,4.8.8C36.3,20.35,36.8,21,36.8,21.25Z" fill="#525a63"/>
  </g>
</svg>
