<svg id="Layer_1" data-name="Layer 1" xmlns="http://www.w3.org/2000/svg" viewBox="0 0 64 64">
  <title>deploymodels</title>
  <g>
    <path d="M49.59,11.71a1.38,1.38,0,0,0-.4.3A1.38,1.38,0,0,1,49.59,11.71Z" fill="#525a63"/>
    <path d="M49.19,12Z" fill="#525a63"/>
    <path d="M49.79,11.61c.3-.2.5-.4,0,0Z" fill="#525a63"/>
    <path d="M49.59,11.71c.1-.1.1-.1.2-.1C49.69,11.61,49.69,11.71,49.59,11.71Z" fill="#525a63"/>
    <path d="M45.29,32.31a.9.9,0,0,1,.5-.1A4.33,4.33,0,0,1,45.29,32.31Z" fill="#525a63"/>
    <path d="M45.29,32.31c-.2,0-.3.1-.4.1A.76.76,0,0,0,45.29,32.31Z" fill="#525a63"/>
    <path d="M44.89,32.41h-.2C44.79,32.51,44.79,32.41,44.89,32.41Z" fill="#525a63"/>
    <path d="M55.79,59.81c-.1,0-.2-.1-.3-.1C55.59,59.71,55.69,59.81,55.79,59.81Z" fill="#525a63"/>
    <path d="M55.79,59.81a3.22,3.22,0,0,1,.6.2A2.07,2.07,0,0,1,55.79,59.81Z" fill="#525a63"/>
    <path d="M58.59,51.81a4.15,4.15,0,0,0-5.2,2.2l-42.6-15.1a3.38,3.38,0,0,0,.6-1.2l28.8-7.9a4.2,4.2,0,0,0,5.1,2.5,4.24,4.24,0,1,0-5.3-3.5l-28.3,7.8v-.4a4.78,4.78,0,0,0-1-2.8l33.2-22.5a4.3,4.3,0,0,0,5.6.8,4.24,4.24,0,0,0-4.8-7,4.26,4.26,0,0,0-1.4,5.5L10,32.71a4.55,4.55,0,0,0-2.8-1,4.5,4.5,0,0,0,0,9,4.34,4.34,0,0,0,2.8-1h0l43,15.2a4.28,4.28,0,0,0,2.7,4.9,4.26,4.26,0,0,0,2.9-8ZM43,25.21Zm.3-.1h0c.1,0,.1-.1,0,0,.1-.1.1,0,0,0a3.26,3.26,0,1,1-2.3,4A3.3,3.3,0,0,1,43.29,25.11Zm2.1-19.6a1.38,1.38,0,0,0-.4.3c0-.1.2-.2.4-.3a.1.1,0,0,0,.1-.1l-.1.1a3.24,3.24,0,1,1-.9,4.5A3.23,3.23,0,0,1,45.39,5.51Zm.4-.3ZM7.19,39.71a3.5,3.5,0,0,1,0-7,3.5,3.5,0,0,1,0,7Zm53.1,17.2a3.29,3.29,0,1,1-2-4.2.76.76,0,0,0-.4-.1c.1,0,.2.1.4.1.8.3.4.1,0,0A3.31,3.31,0,0,1,60.29,56.91Z" fill="#525a63"/>
    <path d="M55.49,59.71a.77.77,0,0,0-.3-.1A1,1,0,0,0,55.49,59.71Z" fill="#525a63"/>
  </g>
</svg>
