<svg id="Layer_1" data-name="Layer 1" xmlns="http://www.w3.org/2000/svg" viewBox="0 0 64 64">
  <title>innovation</title>
  <g>
    <path d="M22,15.4a.43.43,0,0,0,.4-.4c0-.2-.2-.3-.4-.3a8.19,8.19,0,0,0-7.5,5,.37.37,0,0,0,.2.5h.2c.2,0,.3-.1.3-.2A7.37,7.37,0,0,1,22,15.4Z" fill="#525a63"/>
    <path d="M14.3,22.3a.43.43,0,0,0-.4.4v.1a.4.4,0,0,0,.8,0v-.1A.43.43,0,0,0,14.3,22.3Z" fill="#525a63"/>
    <path d="M17.6,37.1v2.7A4.37,4.37,0,0,0,22,44.2a4.31,4.31,0,0,0,4.4-4.4V37.1c0-2,1.2-3.4,2.6-5.1,1.8-2.1,3.8-4.5,4-8.6v-.6a11,11,0,1,0-22,0v.6c.2,4.1,2.2,6.5,4,8.6C16.4,33.7,17.6,35.1,17.6,37.1Zm8,2.7a3.56,3.56,0,0,1-7.1.4h2.4a.4.4,0,1,0,0-.8H18.4V37.5h7.2ZM11.8,22.7a10.2,10.2,0,0,1,20.4,0v.6c-.2,3.9-2.1,6.2-3.8,8.2-1.4,1.6-2.7,3.2-2.8,5.2H22.4V28.1l1.3-1.3a.42.42,0,0,0-.6-.6l-1.4,1.4a.37.37,0,0,0-.1.3v8.8H18.4c-.2-2.1-1.4-3.6-2.8-5.2-1.7-2.1-3.6-4.3-3.8-8.2Z" fill="#525a63"/>
    <path d="M35,24.5a.47.47,0,0,0,.5.5h4a.5.5,0,0,0,0-1h-4A.47.47,0,0,0,35,24.5Z" fill="#525a63"/>
    <path d="M34.7,15.6h.1l3.8-1.3a.47.47,0,0,0-.3-.9l-3.8,1.3a.49.49,0,0,0-.3.6C34.2,15.5,34.5,15.6,34.7,15.6Z" fill="#525a63"/>
    <path d="M27.6,9.2a.37.37,0,0,0,.3.1.76.76,0,0,0,.4-.2l2-3.5a.57.57,0,0,0-.2-.7.57.57,0,0,0-.7.2l-2,3.4A.57.57,0,0,0,27.6,9.2Z" fill="#525a63"/>
    <path d="M3.8,25h4a.5.5,0,0,0,0-1h-4a.5.5,0,0,0,0,1Z" fill="#525a63"/>
    <path d="M4.8,14.3l3.8,1.3h.1c.2,0,.5-.1.5-.3a.49.49,0,0,0-.3-.6L5.1,13.4a.47.47,0,0,0-.3.9Z" fill="#525a63"/>
    <path d="M15,9.1c.2.1.3.2.4.2a.37.37,0,0,0,.3-.1.57.57,0,0,0,.2-.7l-2-3.4a.57.57,0,0,0-.7-.2.57.57,0,0,0-.2.7Z" fill="#525a63"/>
    <path d="M63.1,15.3c0-.1-.1-.2-.1-.3L58.8,7.7a.5.5,0,0,0-.8,0l-4.8,6.9a.5.5,0,1,0,.8.6l4-5.67c-1.85,37.14-54.55,50.85-55.08,51a.48.48,0,0,0-.36.6A.49.49,0,0,0,3,61.5a.25.25,0,0,0,.12,0c.54-.13,53.71-14,55.82-51.64L62.2,15.5a.53.53,0,0,0,.7.2C63.1,15.7,63.2,15.5,63.1,15.3Z" fill="#525a63"/>
  </g>
</svg>
