<svg id="Layer_1" data-name="Layer 1" xmlns="http://www.w3.org/2000/svg" viewBox="0 0 64 64">
  <title>linkedin</title>
  <g>
    <path d="M0,8.5A6.39,6.39,0,0,1,2.2,3.4a8,8,0,0,1,5.6-2,7.73,7.73,0,0,1,5.5,2,7.16,7.16,0,0,1,2.2,5.3,6.35,6.35,0,0,1-2.1,4.9,7.65,7.65,0,0,1-5.7,2H7.6a7.73,7.73,0,0,1-5.5-2A6.64,6.64,0,0,1,0,8.5Z" fill="#8a8a8a"/>
    <rect x="0.8" y="21.3" width="13.7" height="41.3" fill="#8a8a8a"/>
    <path d="M22.1,62.6H35.8v-23a9.13,9.13,0,0,1,.5-3.3,10.4,10.4,0,0,1,2.6-3.6,6.52,6.52,0,0,1,4.4-1.5q6.9,0,6.9,9.3V62.6H64V38.9c0-6.1-1.4-10.7-4.3-13.9S53,20.3,48.3,20.3a13.91,13.91,0,0,0-12.4,6.9v.1h-.1l.1-.1V21.3H22.1c.1,1.3.1,5.4.1,12.3S22.2,50.1,22.1,62.6Z" fill="#8a8a8a"/>
  </g>
</svg>
