<svg id="Layer_1" data-name="Layer 1" xmlns="http://www.w3.org/2000/svg" viewBox="0 0 64 64">
  <title>rocket</title>
  <path d="M55.11,1a8.16,8.16,0,0,1,5.8,2A7.83,7.83,0,0,1,63,8.9c0,7.9-6.8,19.8-17.3,30.2-.6.6-1.1,1-1.7,1.5l-.5.4.2.6c0,.1,0,.2.1.2a4.33,4.33,0,0,1,.1.5c.9,4.1-1.5,16.8-16.6,20.6h-.1c4.2-5.7,5.8-10.3,5.1-14.4L32,47.2l-1.2.7a.76.76,0,0,1-.4.2,4.7,4.7,0,0,0-.9.6l-1.6-1.6-.7-.7-.7.7L23.61,50l-9.8-9.8,2.9-2.9.7-.7-.7-.6-1.5-1.6h0c.1-.2.3-.5.4-.7A5.74,5.74,0,0,1,16,33l.8-1.3-1.5-.2a9.7,9.7,0,0,0-1.7-.1c-3.6,0-7.6,1.7-12.5,5.2H1C5.11,20,19.41,19.8,20,19.8a9,9,0,0,1,1.8.2h.1c.1,0,.1.1.2.1l.7.4.5-.6c.5-.6,1-1.2,1.4-1.6C35.21,7.8,47.21,1,55.11,1m0-1c-8,0-20,6.5-31.1,17.5-.5.5-1,1.1-1.5,1.7-.2-.1-.3-.2-.5-.2a10.31,10.31,0,0,0-2-.2c-5.6,0-16.5,3.6-20,17.5a1.19,1.19,0,0,0,.4,1.1,1.42,1.42,0,0,0,.6.2,1.42,1.42,0,0,0,.6-.2c4.7-3.4,8.6-5,12-5a7.57,7.57,0,0,1,1.5.1c-.3.5-.5.9-.8,1.4a.93.93,0,0,0,.2,1.2L16,36.7l-2.9,2.9a1,1,0,0,0,0,1.4l9.8,9.8a1,1,0,0,0,1.4,0l2.9-2.9,1.6,1.6a.91.91,0,0,0,.7.3.76.76,0,0,0,.5-.2,14.8,14.8,0,0,1,1.3-.8c.7,3.8-.9,8.2-4.9,13.6a1,1,0,0,0,.2,1.4,1.45,1.45,0,0,0,.7.2h.2c15.9-4,18.3-17.6,17.3-21.9a6.37,6.37,0,0,1-.2-.7c.6-.5,1.2-1,1.8-1.6C57.11,29.2,64,17.1,64,8.9a9,9,0,0,0-2.4-6.6A8.78,8.78,0,0,0,55.11,0Z" fill="#525a63"/>
  <path d="M47,13a4,4,0,0,1,4,4,3.7,3.7,0,0,1-1.2,2.9A4,4,0,0,1,47,21.1a4.36,4.36,0,0,1-2.9-1.2A4.05,4.05,0,0,1,47,13m0-1a5.05,5.05,0,0,0-3.6,8.6A4.91,4.91,0,0,0,47,22.1a4.69,4.69,0,0,0,3.5-1.5A4.61,4.61,0,0,0,52,17a5,5,0,0,0-5-5Z" fill="#525a63"/>
  <path d="M5.5,52a.47.47,0,0,1-.35-.15.48.48,0,0,1,0-.7l7.5-7.5a.49.49,0,0,1,.7.7l-7.5,7.5A.47.47,0,0,1,5.5,52Z" fill="#525a63"/>
  <path d="M5.5,59a.47.47,0,0,1-.35-.15.48.48,0,0,1,0-.7l11-11a.49.49,0,0,1,.7.7l-11,11A.47.47,0,0,1,5.5,59Z" fill="#525a63"/>
  <path d="M12.5,59a.47.47,0,0,1-.35-.15.48.48,0,0,1,0-.7l7.5-7.5a.49.49,0,0,1,.7.7l-7.5,7.5A.47.47,0,0,1,12.5,59Z" fill="#525a63"/>
</svg>
