<svg id="Layer_1" data-name="Layer 1" xmlns="http://www.w3.org/2000/svg" viewBox="0 0 64 64">
  <title>roi</title>
  <g>
    <path d="M31.35,16.5v3.2A6.89,6.89,0,0,0,27,21.6a5.5,5.5,0,0,0-1.6,4.2,5.51,5.51,0,0,0,1.5,4A13.21,13.21,0,0,0,32,32.5a9.65,9.65,0,0,1,4.1,2.1,3.7,3.7,0,0,1,1.2,2.9,3.37,3.37,0,0,1-1.6,3.1A5.49,5.49,0,0,1,32,41.8a5.81,5.81,0,0,1-4.1-1.4,5,5,0,0,1-1.5-3.9h-1.9a6.81,6.81,0,0,0,1.8,5,7.36,7.36,0,0,0,5,2v3h1.6v-3a6.6,6.6,0,0,0,4.5-1.8A5.36,5.36,0,0,0,39,37.5a6.24,6.24,0,0,0-.6-2.9,6.28,6.28,0,0,0-1.9-2.1,16.31,16.31,0,0,0-4.1-1.8,11.3,11.3,0,0,1-4-2,3.77,3.77,0,0,1-1.2-3,4.45,4.45,0,0,1,1.3-3.2,5.22,5.22,0,0,1,3.6-1.2,4.61,4.61,0,0,1,3.6,1.5,5.68,5.68,0,0,1,1.3,4h1.9a7.65,7.65,0,0,0-1.5-5A6.58,6.58,0,0,0,33,19.7V16.5Z" fill="#525a63"/>
    <path d="M62.35,58.1l-6-3.9a.43.43,0,1,0-.5.7l4.63,3h-14v1h14l-4.71,3c-.2.1-.2.4-.1.6s.3.2.5.4c.1,0,.1-.1.2-.1l6-3.9a.5.5,0,0,0,0-.8Z" fill="#525a63"/>
    <path d="M18,55l.6-.8a26,26,0,0,1,8.6-47.9l-.2-1A27.06,27.06,0,0,0,18,55Z" fill="#525a63"/>
    <path d="M59,31.9a27,27,0,0,0-26.19-27l4.89-3a.37.37,0,0,0,.2-.5c-.1-.2-.2-.2-.4-.3a.35.35,0,0,1-.2.1L31.15,5a.76.76,0,0,0-.2.4c0,.1.1.2.1.3l5,4.9a.43.43,0,1,0,.5-.7l-3.81-4a26,26,0,0,1-.79,52H1.45v1H32A27,27,0,0,0,59,31.9Z" fill="#525a63"/>
  </g>
</svg>
