<svg id="Layer_1" data-name="Layer 1" xmlns="http://www.w3.org/2000/svg" viewBox="0 0 64 64">
  <title>twitter</title>
  <path d="M64,12.1a27.91,27.91,0,0,1-7.5,2.1,13.22,13.22,0,0,0,5.8-7.3A28,28,0,0,1,54,10.1,13.68,13.68,0,0,0,44.3,6,13.14,13.14,0,0,0,31.2,19.1a15.26,15.26,0,0,0,.3,3A37,37,0,0,1,4.5,8.4,13.3,13.3,0,0,0,2.7,15,13,13,0,0,0,8.5,25.9a13.33,13.33,0,0,1-5.9-1.6v.2A13.11,13.11,0,0,0,13.1,37.4a13.45,13.45,0,0,1-3.5.5,21.05,21.05,0,0,1-2.5-.2,13.16,13.16,0,0,0,12.3,9.1A26.56,26.56,0,0,1,3.1,52.4,30.28,30.28,0,0,1,0,52.2,38.1,38.1,0,0,0,20.1,58c24.1,0,37.4-20,37.4-37.4V18.9A26.36,26.36,0,0,0,64,12.1Z" fill="#8a8a8a"/>
</svg>
